<svg xmlns="http://www.w3.org/2000/svg" width="980" height="560" viewBox="0 0 980 560">
  <defs>
    <style>
      .bg{fill:#f5f7fa}.panel{fill:#fff;stroke:#dcdfe6;stroke-width:2}.header{fill:#409eff}.side{fill:#ffffff}.menu{fill:#ecf5ff;stroke:#409eff;stroke-width:2}.text{font-family:"Microsoft YaHei","PingFang SC",Arial,sans-serif;fill:#303133}.muted{fill:#606266}.small{font-size:18px}.mid{font-size:22px;font-weight:600}.title{font-size:26px;font-weight:700}.note{fill:#f0f9eb;stroke:#67c23a;stroke-width:2}.card{fill:#fafafa;stroke:#e4e7ed;stroke-width:2}
    </style>
  </defs>
  <rect class="bg" x="0" y="0" width="980" height="560" rx="18"/>
  <rect class="panel" x="40" y="40" width="900" height="480" rx="12"/>
  <rect class="header" x="40" y="40" width="900" height="64" rx="12"/>
  <rect class="header" x="40" y="80" width="900" height="24"/>
  <text class="text title" x="84" y="82" fill="#fff">证书批量生成工具</text>
  <rect class="side" x="40" y="104" width="190" height="416"/>
  <rect class="menu" x="60" y="138" width="150" height="48" rx="8"/>
  <text class="text mid" x="84" y="169">模板管理</text>
  <rect class="card" x="60" y="204" width="150" height="48" rx="8"/>
  <text class="text mid" x="84" y="235">批量生成</text>
  <line x1="230" y1="104" x2="230" y2="520" stroke="#dcdfe6" stroke-width="2"/>
  <text class="text title" x="270" y="154">主工作区</text>
  <rect class="card" x="270" y="184" width="185" height="210" rx="10"/>
  <rect x="292" y="210" width="141" height="108" rx="8" fill="#eef3f8" stroke="#c0c4cc" stroke-width="2"/>
  <text class="text small" x="313" y="267">模板缩略图</text>
  <text class="text mid" x="310" y="356">创建 / 编辑模板</text>
  <rect class="card" x="490" y="184" width="185" height="210" rx="10"/>
  <rect x="512" y="210" width="141" height="108" rx="8" fill="#eef3f8" stroke="#c0c4cc" stroke-width="2"/>
  <text class="text small" x="540" y="267">上传 Excel</text>
  <text class="text mid" x="527" y="356">批量生成证书</text>
  <rect class="card" x="710" y="184" width="185" height="210" rx="10"/>
  <rect x="732" y="210" width="141" height="108" rx="8" fill="#eef3f8" stroke="#c0c4cc" stroke-width="2"/>
  <text class="text small" x="750" y="267">小程序 ZIP</text>
  <text class="text mid" x="742" y="356">导出上传包</text>
  <rect class="note" x="270" y="424" width="625" height="54" rx="8"/>
  <text class="text mid" x="292" y="459">建议顺序：先维护模板，再上传数据，最后生成证书或 ZIP 包</text>
</svg>
